<?xml version="1.0"?>
<svg width="7657" height="2169" xmlns="http://www.w3.org/2000/svg" xmlns:svg="http://www.w3.org/2000/svg">
 <g class="layer">
  <title>Layer 1</title>
  <path d="m2824,1737.74c-1240,269.6 -2396.83,-274 -2822,-579.5l0,1010l7655,0l0,-2011.5c-513.2,-100 -2262.4,667.1 -2833,948.5c-570.6,281.4 -1577.17,569.67 -2000,632.5z" fill="#448030" id="svg_1" stroke="black" transform="matrix(1 0 0 1 0 0)"/>
  <path d="m6145.18,220.12c739.34,-233.99 1311.27,-241.61 1504.82,-216.16l0,71.88c-524.54,-88.63 -2100.41,605.45 -2523.16,793.75c-422.75,188.3 -756.29,335.34 -953.12,410.19l-569.96,205.2c-357.57,100.48 -924.46,240.95 -1047.76,248.01c227.97,-61.06 1309.13,-480.99 1684.21,-648.19c375.08,-167.2 1165.63,-630.7 1904.96,-864.69z" fill="#87A11F" id="svg_2" stroke="#87A11F"/>
 </g>
</svg>